PathFileType	4	(X/Y/Z)	C:/Users/opensim2020/Desktop/walking_exp_matlab/subject01_walking15_straight_01.trc																																																																																																																															
DataRate	CameraRate	NumFrames	NumMarkers	Units	OrigDataRate	OrigDataStartFrame	OrigNumFrames																																																																																																																											
100	100	4	43	mm	100	746	125																																																																																																																											
Frame#	Time	LFHD			RFHD			LBHD			RBHD			C7			T10			CLAV			STRN			RBAK			LSHO			LUPA			LELB			LFRM			LWRA			LWRB			LFIN			RSHO			RUPA			RELB			RFRM			RWRA			RWRB			RFIN			LASI			RASI			LPSI			RPSI			LTHI			LKNE			LTIB			LANK			LHEE			LTOE			RTHI			RKNE			RTIB			RANK			RHEE			RTOE			*39			*40			*41			*42		
		X1	Y1	Z1	X2	Y2	Z2	X3	Y3	Z3	X4	Y4	Z4	X5	Y5	Z5	X6	Y6	Z6	X7	Y7	Z7	X8	Y8	Z8	X9	Y9	Z9	X10	Y10	Z10	X11	Y11	Z11	X12	Y12	Z12	X13	Y13	Z13	X14	Y14	Z14	X15	Y15	Z15	X16	Y16	Z16	X17	Y17	Z17	X18	Y18	Z18	X19	Y19	Z19	X20	Y20	Z20	X21	Y21	Z21	X22	Y22	Z22	X23	Y23	Z23	X24	Y24	Z24	X25	Y25	Z25	X26	Y26	Z26	X27	Y27	Z27	X28	Y28	Z28	X29	Y29	Z29	X30	Y30	Z30	X31	Y31	Z31	X32	Y32	Z32	X33	Y33	Z33	X34	Y34	Z34	X35	Y35	Z35	X36	Y36	Z36	X37	Y37	Z37	X38	Y38	Z38	X39	Y39	Z39	X40	Y40	Z40	X41	Y41	Z41	X42	Y42	Z42	X43	Y43	Z43
																																																																																																																																		
79	0.78	96.98129	1653.06189	1381.89929	132.84836	1662.87732	1488.74805	-13.24226	1606.76416	1415.85229	22.4094	1615.48206	1529.77991	-35.64761	1414.38928	1448.89795	-68.13265	1118.45068	1467.01538	112.64217	1351.21997	1451.73718	158.28752	1197.64709	1456.56628	-89.96718	1223.08765	1534.1803	49.03096	1375.8158	1291.05212	0.58642	1191.7887	1214.91772	-35.85854	1048.90979	1226.24622	-33.20975	937.04089	1202.75818	4.85223	801.34076	1220.02625	-49.86315	815.31073	1198.40063	-29.20912	733.80469	1188.04846	42.61395	1390.12036	1599.32422	-2.99109	1198.16113	1714.44238	21.63569	1072.65637	1733.2301	110.91738	984.55945	1754.00476	236.57539	931.73688	1716.01135	207.49695	908.94928	1759.67517	283.41589	868.5578	1752.50586	125.51997	918.5072	1379.29968	100.7797	913.97656	1592.44763	-66.03972	926.83203	1404.90759	-79.49379	933.97827	1549.13586	178.36154	603.28369	1326.51636	209.83539	477.67905	1354.68054	193.34775	287.13593	1344.5564	190.13435	69.33966	1404.98499	145.14603	39.71427	1457.9093	334.47443	40.7655	1403.37	-9.79858	588.11725	1650.66309	-38.6386	429.58517	1637.29419	-187.06496	331.02103	1635.87891	-334.04602	181.6696	1596.77417	-379.68332	203.47166	1542.59839	-310.0849	37.60618	1571.17383	116.3334	1695.74878	1469.02966	1973.23083	1023.40063	-3102.01782	2012.43188	1022.03674	-3140.84473	NaN	NaN	NaN
80	0.79	111.00329	1653.15625	1378.65759	146.80226	1663.52222	1485.50818	0.77841	1606.92236	1412.81372	36.32979	1616.25452	1526.72827	-21.41569	1414.87109	1446.9259	-54.09227	1119.18677	1465.97009	126.82214	1352.07813	1450.19031	172.7567	1198.57361	1455.68384	-75.87922	1223.93884	1532.54492	63.6582	1375.84851	1289.42639	17.84173	1191.45789	1213.48022	-17.28568	1048.05933	1224.51001	-12.72515	936.31158	1200.91797	26.88857	801.09711	1218.6283	-27.69823	814.46088	1196.50171	-6.08742	733.01025	1186.18311	56.56837	1391.15869	1597.51453	8.20669	1199.14661	1711.78271	32.68723	1073.82104	1731.16821	120.56078	984.42493	1752.5918	245.48595	929.08459	1715.53333	215.79437	907.03766	1759.16333	291.02728	865.30255	1752.66968	139.88148	920.26709	1378.04785	114.77811	914.33875	1591.06128	-51.58743	927.64545	1405.07385	-65.11417	933.14746	1549.32654	194.07242	605.05469	1326.79639	222.64474	476.55048	1354.97119	201.18008	285.60373	1344.71436	191.42763	69.19815	1405.64136	145.71152	40.1328	1457.74365	336.15051	39.2928	1403.58411	12.81482	585.76691	1651.33093	-11.85433	427.22452	1638.8363	-162.93881	333.0072	1638.01624	-314.68414	189.64833	1598.27954	-359.30045	214.89413	1544.83679	-299.72794	44.47775	1572.74255	130.78461	1696.27441	1465.46521	1973.14539	1023.46478	-3101.77124	2012.53003	1022.17877	-3140.66333	NaN	NaN	NaN
81	0.8	124.79613	1653.17725	1375.53198	160.73286	1664.3092	1482.22937	14.71755	1607.01978	1410.0177	50.35358	1617.11511	1523.83276	-7.7614	1415.14465	1445.11475	-40.06663	1119.89355	1464.74255	140.84308	1352.81311	1448.79236	186.79607	1199.32007	1455.11438	-61.92574	1224.93286	1531.26355	78.26051	1376.12549	1287.9939	35.04779	1191.32568	1212.22852	1.43799	1047.37305	1222.62622	7.97425	935.72626	1199.0697	49.59642	801.11066	1217.23328	-4.87049	813.76855	1194.53235	17.88164	732.14532	1184.42944	70.42841	1392.177	1595.75305	19.45648	1200.30737	1709.34216	43.6024	1075.04614	1729.13257	129.89882	984.14783	1751.29333	253.92108	926.02625	1715.07397	223.47931	904.6568	1758.63574	297.90445	861.53864	1752.96155	154.0097	921.9679	1376.46338	128.86021	914.87634	1589.74695	-37.67332	928.55609	1405.09265	-51.13031	932.59845	1549.47754	208.45993	605.50562	1326.97351	233.34558	474.23807	1354.3335	206.99084	284.15906	1345.20886	192.87822	69.4114	1406.22778	146.13652	40.48281	1457.80774	337.57639	38.29292	1403.6853	35.71544	583.49542	1651.61414	15.74599	424.9115	1639.82007	-138.00783	334.90015	1640.146	-293.39493	198.37097	1598.90247	-338.07227	225.97141	1546.69556	-286.34586	52.3271	1574.10767	144.75803	1696.81824	1461.91016	1973.29041	1023.39801	-3101.99512	2012.49109	1022.18988	-3140.73999	NaN	NaN	NaN
82	0.81	138.6826	1653.34192	1372.43213	174.74712	1665.28491	1478.97424	28.70377	1607.17151	1407.42798	64.49551	1618.17639	1521.11475	5.62995	1415.46326	1443.44177	-26.04636	1120.68469	1463.26721	154.81337	1353.47766	1447.66235	200.59558	1199.97339	1454.57849	-48.22555	1226.20288	1530.31567	92.73241	1376.51672	1286.68701	52.05841	1191.38391	1211.02161	20.23492	1046.83948	1220.72119	28.8358	935.25842	1197.23767	72.84509	801.40594	1215.86841	18.30467	813.03345	1192.76953	42.86264	731.99823	1182.71753	84.17474	1393.26221	1594.22803	31.01077	1201.59741	1707.30835	54.37906	1076.27063	1727.13379	138.87836	983.56995	1750.06714	261.86667	922.55756	1714.72961	230.65881	901.91681	1758.03528	304.03528	857.34094	1753.29382	167.82822	923.73181	1374.94714	142.85274	915.64264	1588.59827	-23.99906	929.51715	1404.84338	-37.25156	931.72552	1549.27869	220.96797	604.57556	1327.03857	242.52107	472.0246	1353.70825	211.48094	283.35861	1345.51904	193.93365	69.42026	1406.38293	146.39818	40.85307	1457.76868	338.76883	37.34433	1404.13867	58.94818	581.54333	1651.66467	43.68992	422.92743	1640.30164	-112.07777	337.08005	1642.17566	-271.15469	207.04082	1599.19885	-315.30505	235.96468	1547.09973	-269.37558	59.67411	1577.42517	158.41733	1697.53198	1458.49243	1973.23096	1023.5368	-3101.94678	2012.51697	1022.07617	-3140.65454	NaN	NaN	NaN
